<svg xmlns="http://www.w3.org/2000/svg" xmlns:xlink="http://www.w3.org/1999/xlink" viewBox="0 0 1920 1080"><defs><style>.cls-1{fill:url(#Nepojmenovaný_přechod_2);}.cls-2{fill:#efefef;}</style><linearGradient id="Nepojmenovaný_přechod_2" x1="-443.63" y1="77.2" x2="-443.63" y2="75.8" gradientTransform="matrix(1366, 0, 0, -768, 606960.84, 59287.14)" gradientUnits="userSpaceOnUse"><stop offset="0" stop-color="#f4f4f4"/><stop offset="1" stop-color="#fff"/></linearGradient></defs><g id="OBJECTS"><rect id="Rectangle_97" data-name="Rectangle 97" class="cls-1" x="0.3" y="-0.63" width="1913.94" height="1073.64"/><path class="cls-2" d="M1374.39,1730.82H2.85V-1.35H1374.39ZM3.76,1729.91H1373.48V-.44H3.76Z"/><rect class="cls-2" x="3.31" y="1037.4" width="1370.63" height="0.91"/><rect class="cls-2" x="3.31" y="994.13" width="1370.63" height="0.91"/><rect class="cls-2" x="3.31" y="950.84" width="1370.63" height="0.91"/><rect class="cls-2" x="3.31" y="907.56" width="1370.63" height="0.91"/><rect class="cls-2" x="3.31" y="864.28" width="1370.63" height="0.91"/><rect class="cls-2" x="3.31" y="821" width="1370.63" height="0.91"/><rect class="cls-2" x="3.31" y="777.72" width="1370.63" height="0.91"/><rect class="cls-2" x="3.31" y="734.43" width="1370.63" height="0.91"/><rect class="cls-2" x="3.31" y="691.15" width="1370.63" height="0.91"/><rect class="cls-2" x="3.31" y="647.87" width="1370.63" height="0.91"/><rect class="cls-2" x="3.31" y="604.59" width="1370.63" height="0.91"/><rect class="cls-2" x="3.31" y="561.31" width="1370.63" height="0.91"/><rect class="cls-2" x="3.31" y="518.03" width="1370.63" height="0.91"/><rect class="cls-2" x="3.31" y="474.75" width="1370.63" height="0.91"/><rect class="cls-2" x="3.31" y="431.47" width="1370.63" height="0.91"/><rect class="cls-2" x="3.31" y="388.18" width="1370.63" height="0.91"/><rect class="cls-2" x="3.31" y="344.9" width="1370.63" height="0.91"/><rect class="cls-2" x="3.31" y="301.62" width="1370.63" height="0.91"/><rect class="cls-2" x="3.31" y="258.34" width="1370.63" height="0.91"/><rect class="cls-2" x="3.31" y="215.06" width="1370.63" height="0.91"/><rect class="cls-2" x="3.31" y="171.78" width="1370.63" height="0.91"/><rect class="cls-2" x="3.31" y="128.49" width="1370.63" height="0.91"/><rect class="cls-2" x="3.31" y="85.21" width="1370.63" height="0.91"/><rect class="cls-2" x="3.31" y="41.93" width="1370.63" height="0.91"/><rect class="cls-2" x="1330.64" y="-0.89" width="0.91" height="1731.26"/><rect class="cls-2" x="1287.81" y="-0.89" width="0.91" height="1731.26"/><rect class="cls-2" x="1244.98" y="-0.89" width="0.91" height="1731.26"/><rect class="cls-2" x="1202.15" y="-0.89" width="0.91" height="1731.26"/><rect class="cls-2" x="1159.32" y="-0.89" width="0.91" height="1731.26"/><rect class="cls-2" x="1116.48" y="-0.89" width="0.91" height="1731.26"/><rect class="cls-2" x="1073.65" y="-0.89" width="0.91" height="1731.26"/><rect class="cls-2" x="1030.82" y="-0.89" width="0.91" height="1731.26"/><rect class="cls-2" x="987.99" y="-0.89" width="0.91" height="1731.26"/><rect class="cls-2" x="945.15" y="-0.89" width="0.91" height="1731.26"/><rect class="cls-2" x="902.32" y="-0.89" width="0.91" height="1731.26"/><rect class="cls-2" x="859.49" y="-0.89" width="0.91" height="1731.26"/><rect class="cls-2" x="816.66" y="-0.89" width="0.91" height="1731.26"/><rect class="cls-2" x="773.83" y="-0.89" width="0.91" height="1731.26"/><rect class="cls-2" x="730.99" y="-0.89" width="0.91" height="1731.26"/><rect class="cls-2" x="688.16" y="-0.89" width="0.91" height="1731.26"/><rect class="cls-2" x="645.33" y="-0.89" width="0.91" height="1731.26"/><rect class="cls-2" x="602.5" y="-0.89" width="0.91" height="1731.26"/><rect class="cls-2" x="559.66" y="-0.89" width="0.91" height="1731.26"/><rect class="cls-2" x="516.84" y="-0.89" width="0.91" height="1731.26"/><rect class="cls-2" x="474" y="-0.89" width="0.91" height="1731.26"/><rect class="cls-2" x="431.17" y="-0.89" width="0.91" height="1731.26"/><rect class="cls-2" x="388.34" y="-0.89" width="0.91" height="1731.26"/><rect class="cls-2" x="345.51" y="-0.89" width="0.91" height="1731.26"/><rect class="cls-2" x="302.67" y="-0.89" width="0.91" height="1731.26"/><rect class="cls-2" x="259.84" y="-0.89" width="0.91" height="1731.26"/><rect class="cls-2" x="217.01" y="-0.89" width="0.91" height="1731.26"/><rect class="cls-2" x="174.18" y="-0.89" width="0.91" height="1731.26"/><rect class="cls-2" x="131.35" y="-0.89" width="0.91" height="1731.26"/><rect class="cls-2" x="88.51" y="-0.89" width="0.91" height="1731.26"/><rect class="cls-2" x="45.68" y="-0.89" width="0.91" height="1731.26"/><path class="cls-2" d="M2744.87,1730.82H1373.34V-1.35H2744.87Zm-1370.62-.91H2744V-.44H1374.25Z"/><rect class="cls-2" x="1373.79" y="1037.4" width="1370.63" height="0.91"/><rect class="cls-2" x="1373.79" y="994.13" width="1370.63" height="0.91"/><rect class="cls-2" x="1373.79" y="950.84" width="1370.63" height="0.91"/><rect class="cls-2" x="1373.79" y="907.56" width="1370.63" height="0.91"/><rect class="cls-2" x="1373.79" y="864.28" width="1370.63" height="0.91"/><rect class="cls-2" x="1373.79" y="821" width="1370.63" height="0.91"/><rect class="cls-2" x="1373.79" y="777.72" width="1370.63" height="0.91"/><rect class="cls-2" x="1373.79" y="734.43" width="1370.63" height="0.91"/><rect class="cls-2" x="1373.79" y="691.15" width="1370.63" height="0.91"/><rect class="cls-2" x="1373.79" y="647.87" width="1370.63" height="0.91"/><rect class="cls-2" x="1373.79" y="604.59" width="1370.63" height="0.91"/><rect class="cls-2" x="1373.79" y="561.31" width="1370.63" height="0.91"/><rect class="cls-2" x="1373.79" y="518.03" width="1370.63" height="0.91"/><rect class="cls-2" x="1373.79" y="474.75" width="1370.63" height="0.91"/><rect class="cls-2" x="1373.79" y="431.47" width="1370.63" height="0.91"/><rect class="cls-2" x="1373.79" y="388.18" width="1370.63" height="0.91"/><rect class="cls-2" x="1373.79" y="344.9" width="1370.63" height="0.91"/><rect class="cls-2" x="1373.79" y="301.62" width="1370.63" height="0.91"/><rect class="cls-2" x="1373.79" y="258.34" width="1370.63" height="0.91"/><rect class="cls-2" x="1373.79" y="215.06" width="1370.63" height="0.91"/><rect class="cls-2" x="1373.79" y="171.78" width="1370.63" height="0.91"/><rect class="cls-2" x="1373.79" y="128.49" width="1370.63" height="0.91"/><rect class="cls-2" x="1373.79" y="85.21" width="1370.63" height="0.91"/><rect class="cls-2" x="1373.79" y="41.93" width="1370.63" height="0.91"/><rect class="cls-2" x="1887.32" y="-0.89" width="0.91" height="1731.26"/><rect class="cls-2" x="1844.49" y="-0.89" width="0.91" height="1731.26"/><rect class="cls-2" x="1801.65" y="-0.89" width="0.91" height="1731.26"/><rect class="cls-2" x="1758.83" y="-0.89" width="0.91" height="1731.26"/><rect class="cls-2" x="1715.99" y="-0.89" width="0.91" height="1731.26"/><rect class="cls-2" x="1673.16" y="-0.89" width="0.91" height="1731.26"/><rect class="cls-2" x="1630.33" y="-0.89" width="0.91" height="1731.26"/><rect class="cls-2" x="1587.5" y="-0.89" width="0.91" height="1731.26"/><rect class="cls-2" x="1544.66" y="-0.89" width="0.91" height="1731.26"/><rect class="cls-2" x="1501.83" y="-0.89" width="0.91" height="1731.26"/><rect class="cls-2" x="1459" y="-0.89" width="0.91" height="1731.26"/><rect class="cls-2" x="1416.17" y="-0.89" width="0.91" height="1731.26"/></g></svg>