<svg xmlns="http://www.w3.org/2000/svg" viewBox="0 0 596.96 520.46"><defs><style>.cls-1{isolation:isolate;}.cls-2{fill:#c6c6c6;}.cls-3{fill:#073b4c;}.cls-4{fill:#fff;}.cls-5{opacity:0.16;}.cls-6{opacity:0.5;}.cls-18,.cls-6{mix-blend-mode:multiply;}.cls-7{fill:#b0c3e0;}.cls-8{fill:#118ab2;}.cls-9{fill:#ef476f;}.cls-10{fill:#4e5d83;}.cls-11{fill:#e7f3f7;}.cls-12{fill:#fabba0;}.cls-13{fill:#fbc9b3;}.cls-14{fill:#06d6a0;}.cls-15{fill:#ffd166;}.cls-16{fill:#d3eaf0;}.cls-17{fill:#fcd7c7;}.cls-19{fill:#dcdfe6;}</style></defs><g class="cls-1"><g id="BACKGROUND"><path class="cls-2" d="M114.17,514.38c-25.61,0-43.43-.94-46.66-3.91-5.65-5.19,3.06-17.28,10.74-28,3.82-5.31,7.44-10.34,8.42-13.43l.64.21-.64-.21c1.07-3.35,2.22-7.76,1.58-12-.94-6.25-5.43-11.15-9-14.15-8.94-7.46-20.48-11-31.64-14.34-3.12-.95-6.35-1.93-9.47-3-18.54-6.25-30.28-15.95-33.92-28.07C.43,385,5.72,371.73,10,362.82c5.56-11.53,16.14-22.45,26.36-33,9.6-9.91,19.52-20.16,25.07-30.73,9.59-18.26,19.35-45.38,11.45-70.8-3.12-10.05-11.68-20.39-20-30.4C44.49,187.64,35.73,177,32.59,166.59c-7.54-25.17-.55-51.3,20.77-77.66a150.1,150.1,0,0,1,52.2-41.44c21.27-10,43.49-13.57,64.26-10.24,11.5,1.84,22.74,5.76,33.61,9.55,13.82,4.81,28.1,9.79,42.84,10.42,22.88,1,44.75-8.38,65.91-17.43,3.09-1.32,6.16-2.64,9.23-3.92,22.37-9.34,51.35-18.79,77.12-8.92,15.46,5.93,27.42,18,39,29.6,9.9,10,20.14,20.26,32.55,26.74,7.3,3.8,15.35,6.28,23.14,8.67a167.58,167.58,0,0,1,19.33,6.82c22.36,10,40.87,30.91,49.52,55.94,7.91,22.85,8.14,49.66.66,75.5-4,13.61-9.88,26.74-15.62,39.43-3.85,8.53-7.83,17.34-11.17,26.22-10.13,26.89-11.7,50-4.66,68.72,3.81,10.14,10.25,19.21,16.48,28q1.88,2.63,3.71,5.26c9.39,13.51,20.5,31.64,23.06,52.13,2.62,21-5.22,41.22-20,51.38-13.24,9.12-30.71,9.82-44.75,10.38-50.55,2-102.81,4.09-154.17.71-6.46-.42-13-1-19.37-1.45-19.44-1.54-39.54-3.12-59.31-2.22-8.34.38-15.95,1.1-24,1.86-12.82,1.21-26.07,2.47-42.37,2.24-7.68-.11-21.39.21-37.27.58C151.49,514,131.12,514.38,114.17,514.38Zm40.6-477C119,37.41,81,56.91,54.4,89.77c-21,26-27.93,51.71-20.52,76.43C36.93,176.4,45.6,186.89,54,197s17,20.55,20.2,30.85c8,25.86-1.84,53.34-11.55,71.83C57,310.44,47,320.76,37.35,330.74,27.2,341.23,16.71,352.07,11.23,363.4,7,372.11,1.85,385.09,5.47,397.13c4.43,14.76,20.43,22.93,33.06,27.18,3.1,1,6.32,2,9.43,3,11.29,3.42,23,7,32.11,14.59,3.78,3.15,8.5,8.32,9.5,15,.68,4.55-.51,9.15-1.62,12.65-1,3.29-4.56,8.16-8.62,13.8-7,9.71-15.69,21.8-10.91,26.19,5.4,5,65.24,3.55,104.83,2.62,15.9-.37,29.63-.69,37.33-.58,16.23.23,29.44-1,42.22-2.23,7.73-.73,15.71-1.49,24.08-1.87,19.85-.91,40,.68,59.48,2.23,6.34.5,12.9,1,19.35,1.44,51.29,3.38,103.52,1.3,154-.71,13.86-.55,31.12-1.24,44-10.14,14.35-9.89,22-29.56,19.41-50.12-2.52-20.2-13.52-38.15-22.83-51.52-1.22-1.76-2.46-3.51-3.7-5.26-6.28-8.84-12.77-18-16.64-28.29-7.16-19-5.59-42.45,4.65-69.66,3.36-8.92,7.35-17.75,11.21-26.3,5.72-12.65,11.63-25.73,15.55-39.25,7.4-25.58,7.18-52.1-.63-74.69C552.26,130.47,534,109.85,512,100a169.33,169.33,0,0,0-19.18-6.76c-7.85-2.41-16-4.9-23.37-8.77-12.6-6.57-22.91-16.94-32.88-27C425.1,46,413.25,34,398.05,28.21c-25.32-9.71-54-.35-76.13,8.9-3.06,1.27-6.13,2.59-9.21,3.91-21.3,9.11-43.32,18.54-66.5,17.54-14.93-.64-29.31-5.65-43.22-10.5-10.81-3.77-22-7.66-33.39-9.49A93.78,93.78,0,0,0,154.77,37.41Z"/><path class="cls-2" d="M37.45,282.33a23.19,23.19,0,0,1-3.43-.25C22.37,280.4,12.74,270,12.09,258.45a34.68,34.68,0,0,1,1.7-11.88c1.69-5.59,4-9.84,7-13a22.19,22.19,0,0,1,17.18-6.75A28.58,28.58,0,0,1,60.53,240.7a27.22,27.22,0,0,1,1.83,25.52A28,28,0,0,1,37.45,282.33Zm-.78-54.18a20.83,20.83,0,0,0-14.94,6.37c-2.85,3-5,7-6.65,12.44a33,33,0,0,0-1.65,11.41c.61,11,9.74,20.79,20.78,22.39,10.81,1.56,22.4-4.92,26.93-15.08a25.88,25.88,0,0,0-1.76-24.29,27.22,27.22,0,0,0-21.52-13.21h0Z"/><path class="cls-2" d="M494.54,70.26A28.71,28.71,0,0,1,490.4,70c-14.09-2-25.73-14.59-26.51-28.57A41.79,41.79,0,0,1,466,27c2-6.77,4.8-11.91,8.42-15.7a26.74,26.74,0,0,1,20.76-8.15h0a34.54,34.54,0,0,1,27.32,16.75,32.94,32.94,0,0,1,2.22,30.87A33.83,33.83,0,0,1,494.54,70.26Zm-1-65.8a25.49,25.49,0,0,0-18.25,7.78c-3.47,3.64-6.13,8.6-8.11,15.17a40.3,40.3,0,0,0-2,13.91C466,54.7,477.11,66.7,490.59,68.64c13.2,1.91,27.32-6,32.85-18.4a31.56,31.56,0,0,0-2.14-29.62A33.21,33.21,0,0,0,495,4.5h0C494.56,4.48,494.08,4.46,493.59,4.46Z"/><path class="cls-2" d="M561,366.45a22.08,22.08,0,0,1-3-.21c-10.33-1.49-18.86-10.7-19.43-20.95a30.3,30.3,0,0,1,1.5-10.52c1.5-4.95,3.51-8.71,6.17-11.49a19.66,19.66,0,0,1,15.23-6h0a25.29,25.29,0,0,1,20,12.27,24.14,24.14,0,0,1,1.63,22.61A24.79,24.79,0,0,1,561,366.45Zm-.69-47.85a18.35,18.35,0,0,0-13.14,5.6c-2.51,2.63-4.42,6.21-5.86,11a29.38,29.38,0,0,0-1.45,10c.54,9.65,8.57,18.3,18.29,19.7,9.52,1.38,19.71-4.33,23.7-13.27a22.77,22.77,0,0,0-1.55-21.38,24,24,0,0,0-18.95-11.63h0C561,318.61,560.64,318.6,560.29,318.6Z"/></g><g id="OBJECTS"><path class="cls-2" d="M574.62,516H44.83a5,5,0,0,1-5-5h0a5,5,0,0,1,5-5H574.62a5,5,0,0,1,5,5h0A5,5,0,0,1,574.62,516Z"/><rect class="cls-3" x="98.51" y="56.28" width="323.68" height="453.63" rx="16.13"/><rect class="cls-4" x="117.68" y="75.6" width="285.33" height="395.81"/><path class="cls-3" d="M321.82,44.13H298.75c-2-16.62-18.45-29.58-38.4-29.58s-36.37,13-38.41,29.58H198.87a38,38,0,0,0-38,38v6.7h199v-6.7A38,38,0,0,0,321.82,44.13Zm-61.47,9.95a12.91,12.91,0,1,1,12.9-12.91A12.91,12.91,0,0,1,260.35,54.08Z"/><g class="cls-5"><path class="cls-4" d="M192.9,88.86l22.47-44.73h-16.5a37.9,37.9,0,0,0-13.44,2.45L164.19,88.86Z"/></g><g class="cls-5"><path class="cls-4" d="M325.78,88.86l18.7-37.24a37.86,37.86,0,0,0-22.66-7.49h-2.28L297.07,88.86Z"/></g><g class="cls-5"><path class="cls-4" d="M356.22,65.93a38,38,0,0,0-5.8-8.82L334.47,88.86H344.7Z"/></g><g class="cls-6"><rect class="cls-7" x="160.84" y="83.31" width="199.01" height="5.56"/></g><rect class="cls-8" x="199.39" y="214.72" width="144.06" height="2.16"/><rect class="cls-8" x="199.39" y="224.73" width="144.06" height="2.16"/><rect class="cls-8" x="199.39" y="234.73" width="144.06" height="2.16"/><rect class="cls-3" x="199.1" y="200.19" width="75.11" height="7.15"/><path class="cls-2" d="M180.57,238.09H141.33V198.85h39.24ZM144,235.41h33.88V201.52H144Z"/><polygon class="cls-9" points="158.9 233.59 146.13 222.13 148.81 219.14 158.22 227.59 185.29 189.14 188.57 191.45 158.9 233.59"/><rect class="cls-8" x="199.39" y="338.71" width="144.06" height="2.16"/><rect class="cls-8" x="199.39" y="348.72" width="144.06" height="2.16"/><rect class="cls-8" x="199.39" y="358.72" width="144.06" height="2.16"/><rect class="cls-3" x="199.1" y="324.17" width="81.67" height="7.15"/><rect class="cls-3" x="287.72" y="324.17" width="37.36" height="7.15"/><path class="cls-2" d="M180.57,362.22H141.33V323h39.24ZM144,359.54h33.88V325.66H144Z"/><polygon class="cls-9" points="158.9 357.73 146.13 346.27 148.81 343.28 158.22 351.72 185.29 313.28 188.57 315.59 158.9 357.73"/><rect class="cls-8" x="199.39" y="400.7" width="144.06" height="2.16"/><rect class="cls-8" x="199.39" y="410.71" width="144.06" height="2.16"/><rect class="cls-8" x="199.39" y="420.72" width="144.06" height="2.16"/><rect class="cls-3" x="199.1" y="386.17" width="43.32" height="7.15"/><path class="cls-2" d="M180.57,424.22H141.33V385h39.24ZM144,421.54h33.88V387.66H144Z"/><polygon class="cls-9" points="158.9 419.73 146.13 408.27 148.81 405.28 158.22 413.72 185.29 375.27 188.57 377.58 158.9 419.73"/><path class="cls-2" d="M180.57,176.09H141.33V136.85h39.24ZM144,173.41h33.88V139.53H144Z"/><rect class="cls-8" x="199.39" y="152.73" width="144.06" height="2.16"/><rect class="cls-8" x="199.39" y="162.73" width="144.06" height="2.16"/><rect class="cls-8" x="199.39" y="172.74" width="144.06" height="2.16"/><rect class="cls-3" x="199.1" y="138.19" width="53.25" height="7.15"/><rect class="cls-3" x="259.5" y="138.19" width="65.57" height="7.15"/><polygon class="cls-9" points="158.9 171.6 146.13 160.14 148.81 157.15 158.22 165.59 185.29 127.14 188.57 129.46 158.9 171.6"/><rect class="cls-8" x="199.39" y="276.71" width="144.06" height="2.16"/><rect class="cls-8" x="199.39" y="286.72" width="144.06" height="2.16"/><rect class="cls-8" x="199.39" y="296.73" width="144.06" height="2.16"/><rect class="cls-3" x="199.1" y="262.18" width="25.63" height="7.15"/><rect class="cls-3" x="233.27" y="262.18" width="59.41" height="7.15"/><path class="cls-2" d="M180.57,300.23H141.33V261h39.24ZM144,297.55h33.88V263.67H144Z"/><polygon class="cls-9" points="158.9 295.74 146.13 284.28 148.81 281.29 158.22 289.73 185.29 251.28 188.57 253.6 158.9 295.74"/><path class="cls-10" d="M461.38,499.4s-15.5,7.75-16.09,10.28,28.91.6,30.1-.3-1.49-13-1.49-13Z"/><path class="cls-10" d="M537.6,499.19s15.62,7.51,16.26,10-28.9,1-30.11.17,1.29-13,1.29-13Z"/><path class="cls-8" d="M456.31,190.62s-2,2-4,7.45c-3.3,8.87-10.87,23.15-20.27,33.23-10.38,11.14-19.07,12.22-31.59,8.35s-18.18-4.77-18.18-4.77l3.57,18.18s23.35,22,44.61,10.23c22.6-12.46,34.38-46.49,34.38-46.49Z"/><polygon class="cls-3" points="456.46 303.43 460.34 499.85 474.64 499.85 490.14 319.82 524.42 500.14 538.43 499.55 525.01 300.85 456.46 303.43"/><path class="cls-11" d="M499.83,180.78s19,3.53,25.58,8.9-.1,41.33-.1,41.33H460.93s-1.24-34.08-.1-38.65c1-4,2.84-7.45,6.56-9.24s11.13-3.38,15.3-3.53S499.83,180.78,499.83,180.78Z"/><polygon class="cls-12" points="498.79 151.03 498.98 182.62 483.88 194.15 476.93 184.01 477.92 164.94 498.79 151.03"/><path class="cls-3" d="M497.59,151.82a18.2,18.2,0,0,0,7.06-9.93c2.08-7.35,4.37-22.31-2.19-30-8-9.44-32.68-14.21-41.38-8.9-5.36,3.28-7.25,14.61,3,19.23s28.12,3.72,28.12,4.62S493.62,151.13,497.59,151.82Z"/><path class="cls-13" d="M462.32,121.32s-4.27,34.88,1.89,44,17.49,4.27,25-.5,9.28-7.79,9.73-11.43a28.71,28.71,0,0,0-.59-7.75s6.36-.59,4.57-6.95c-1.44-5.11-8.55-1-8.55-1s3.78-10.34.2-13.91S462.32,121.32,462.32,121.32Z"/><path class="cls-14" d="M503.7,136.1,457,136c-.46,0-.68.51-.75.89a5.62,5.62,0,0,0,0,.92c0,.32,0,.64.05,1s.06.63.11,1a9.21,9.21,0,0,0,.2.91,6,6,0,0,0,.77,1.68,5.35,5.35,0,0,0,.62.72,4.89,4.89,0,0,0,.81.63,6.37,6.37,0,0,0,1,.51,8.2,8.2,0,0,0,1.25.39,12.82,12.82,0,0,0,1.51.24c.56.05,1.12.07,1.69.07,7.25,0,8-3.78,8-7.4h1.26c0,3.62.76,7.4,8,7.4s8-3.76,8-7.37l14.14,0a.72.72,0,1,0,0-1.44Zm-22.16,7.35c-5.84,0-6.53-2.46-6.57-5.76h13.15C488.07,141,487.39,143.45,481.54,143.45Zm-17.28,0c-5.85,0-6.53-2.46-6.58-5.76h13.15C470.79,141,470.1,143.45,464.26,143.45Z"/><path class="cls-15" d="M484.61,186.7s-3.89,2.73-3.68,4.73a27,27,0,0,0,1.31,5l-10.05,31.85L477.56,245l11.26-11.89-3.58-36s3.05-3.69,3.27-6.11S484.61,186.7,484.61,186.7Z"/><polygon class="cls-16" points="484.78 186.79 498.98 174.57 505.44 180.93 493.27 198.02 484.78 186.79"/><path class="cls-8" d="M470.77,181.08,481.7,215l24.83-33s18.68,4.67,23.45,9.73c3,3.17-5.26,63.39-5,77.1.22,9.86,2,38.35,2,38.35l-70.34.39s-3.18-110.72-2.43-113.7S463.91,182.13,470.77,181.08Z"/><path class="cls-8" d="M521.14,186.89s4.17,1.4,10.73,6.16c10.23,7.44,23.37,22.58,28.71,35.87,7,17.46,1.86,33.68-8.94,48.08s-20.86,19.87-20.86,19.87l-2-19.83s17.49-16.53,16.1-32.62c-1.19-13.87-32.38-29.81-32.38-29.81Z"/><path class="cls-3" d="M508.61,183l-2.08-.93L481.7,215l-10.93-33.93a12.36,12.36,0,0,0-1.88.48l11.61,39.61Z"/><polygon class="cls-16" points="484.48 186.9 476.93 176.16 471.29 181.53 476.36 197.55 484.48 186.9"/><path class="cls-12" d="M529.89,278.37c-.43-1.45-1.07-3.05-2.47-3.63a4.69,4.69,0,0,0-3.66.42,17.22,17.22,0,0,0-6.89,5.65,6.93,6.93,0,0,0-1.55,4.08c.06,2.06,1.54,3.76,2.95,5.26,2.9,3.06,5.94,6.15,9.79,7.86a2.92,2.92,0,0,0,1.38.33,2.72,2.72,0,0,0,2-1.71C533.85,291.7,531.34,283.24,529.89,278.37Z"/><path class="cls-4" d="M464,152.25h20.87s-1.79,7.15-11.13,7.55S464,152.25,464,152.25Z"/><path class="cls-17" d="M411.43,151.18l-20.6,1.66-20.6,1.66,15.06-53.85a1.4,1.4,0,0,1,2.65-.22Z"/><rect class="cls-9" x="384.49" y="151.2" width="41.33" height="358.66" transform="translate(-25.25 33.63) rotate(-4.61)"/><rect class="cls-2" x="397.03" y="480.32" width="41.33" height="11.53" transform="matrix(1, -0.08, 0.08, 1, -37.71, 35.14)"/><rect class="cls-2" x="395.17" y="457.18" width="41.33" height="11.53" transform="translate(-35.86 34.91) rotate(-4.61)"/><path class="cls-9" d="M395,115.56l-7-15.13a1.4,1.4,0,0,0-2.65.22l-4.49,16.06Z"/><g class="cls-18"><path class="cls-19" d="M411,150.15l-23-49.72a1.41,1.41,0,0,0-1.36-.85l15.76,51.26.39,0,28.82,357.5,8.62-.69-28.83-357.5Z"/></g><path class="cls-12" d="M370.39,250c-.94-3,1-6.15,2.18-6.58a17.3,17.3,0,0,1,8.88-.73,7,7,0,0,1,3.95,1.86c1.39,1.52,1.5,3.78,1.53,5.83.05,4.22,0,8.55-1.57,12.46a3,3,0,0,1-.75,1.19,2.58,2.58,0,0,1-2.62.15C375.55,261.41,372.18,255.72,370.39,250Z"/></g></g></svg>