<?xml version="1.0" encoding="utf-8"?>
<!-- Generator: Adobe Illustrator 24.3.0, SVG Export Plug-In . SVG Version: 6.00 Build 0)  -->
<svg version="1.1" id="Vrstva_1" xmlns="http://www.w3.org/2000/svg" xmlns:xlink="http://www.w3.org/1999/xlink" x="0px" y="0px"
	 viewBox="0 0 739.9 171" style="enable-background:new 0 0 739.9 171;" xml:space="preserve">
<style type="text/css">
	.st0{fill:#fff;}
	.st1{fill:#EF476F;}
</style>
<g>
	<path class="st0" d="M108.3,146.2c-5.3,6.7-11.9,11.9-19.9,15.5c-8,3.6-16.3,5.5-24.9,5.5c-8.2,0-15.9-1.3-23.1-3.9
		c-7.2-2.6-13.5-6.4-18.8-11.3c-5.3-4.9-9.5-10.8-12.6-17.6c-3.1-6.9-4.6-14.5-4.6-23c0-8.5,1.5-16.1,4.6-23
		c3.1-6.9,7.3-12.7,12.6-17.6c5.3-4.9,11.6-8.6,18.8-11.3s14.9-3.9,23.1-3.9c7.6,0,14.5,1.3,20.7,3.9c6.2,2.6,11.5,6.4,15.8,11.3
		c4.3,4.9,7.6,10.8,10,17.6c2.3,6.9,3.5,14.5,3.5,23v10.3H37.1c1.3,6.3,4.2,11.3,8.5,15c4.4,3.7,9.8,5.6,16.2,5.6
		c5.4,0,10-1.2,13.7-3.6c3.7-2.4,7-5.5,9.7-9.3L108.3,146.2z M80.5,99.3c0.1-5.5-1.7-10.3-5.5-14.2c-3.8-3.9-8.7-5.9-14.7-5.9
		c-3.6,0-6.9,0.6-9.6,1.8c-2.8,1.2-5.1,2.7-7.1,4.5c-2,1.8-3.5,3.9-4.6,6.3c-1.1,2.4-1.7,4.9-1.9,7.5H80.5z"/>
	<path class="st0" d="M161.9,107.6l-35.4-49.5h38.7L184,87.1l18.2-28.9h36.5l-34.6,49.5l40.9,56.9h-38.7l-23.2-35.5l-24.9,35.5
		h-38.3L161.9,107.6z"/>
	<path class="st0" d="M321.6,151.2h-0.4c-3.6,5.7-8.5,9.8-14.6,12.3c-6.1,2.5-12.4,3.7-19.1,3.7c-5,0-9.7-0.7-14.3-2.1
		c-4.6-1.4-8.6-3.5-12.1-6.2c-3.5-2.8-6.3-6.2-8.3-10.3c-2-4.1-3.1-8.8-3.1-14.2c0-6.1,1.1-11.3,3.4-15.5c2.3-4.2,5.3-7.7,9.2-10.5
		c3.9-2.8,8.3-4.9,13.2-6.5c5-1.5,10.1-2.7,15.4-3.4c5.3-0.7,10.6-1.2,16-1.3c5.3-0.1,10.2-0.2,14.8-0.2c0-5.8-2.1-10.5-6.2-13.9
		c-4.2-3.4-9.1-5.1-14.8-5.1c-5.4,0-10.3,1.1-14.8,3.4c-4.5,2.3-8.4,5.4-11.9,9.3l-17.5-17.9c6.1-5.7,13.3-10,21.4-12.8
		c8.2-2.8,16.6-4.3,25.4-4.3c9.6,0,17.5,1.2,23.7,3.6c6.2,2.4,11.2,5.9,14.9,10.6c3.7,4.7,6.3,10.4,7.8,17.2
		c1.5,6.8,2.2,14.6,2.2,23.5v54.1h-30.2V151.2z M313.5,117.9c-2.5,0-5.6,0.1-9.3,0.3c-3.7,0.2-7.3,0.8-10.7,1.9
		c-3.4,1-6.3,2.6-8.8,4.6c-2.4,2-3.6,4.9-3.6,8.5c0,3.9,1.7,6.9,5,8.8c3.4,1.9,6.9,2.8,10.5,2.8c3.2,0,6.3-0.4,9.3-1.3
		c3-0.9,5.7-2.1,8-3.7c2.3-1.6,4.2-3.6,5.6-6.1c1.4-2.5,2.1-5.4,2.1-8.8v-7H313.5z"/>
	<path class="st0" d="M372.4,58.2h31.5v14.4h0.4c1-2,2.5-4.1,4.4-6.1c1.9-2,4.2-3.9,6.8-5.5c2.6-1.6,5.6-2.9,9-3.9
		c3.4-1,7-1.5,10.9-1.5c7.4,0,14,1.5,19.8,4.6c5.8,3.1,10.1,7.9,13,14.4c3.8-6.9,8.4-11.7,13.8-14.7c5.4-2.9,12-4.4,19.9-4.4
		c7.1,0,13.2,1.2,18.1,3.6c4.9,2.4,8.8,5.7,11.6,9.8c2.8,4.2,4.9,9,6.1,14.7c1.2,5.6,1.9,11.6,1.9,18.1v62.8h-32.8v-61.9
		c0-5-1.1-9.2-3.2-12.8c-2.1-3.6-5.9-5.4-11.3-5.4c-3.8,0-7,0.6-9.5,1.9c-2.6,1.2-4.6,3-6.1,5.1c-1.5,2.2-2.6,4.7-3.3,7.7
		c-0.7,2.9-1,6-1,9.2v56.2h-32.8v-56.2c0-1.9-0.1-4.2-0.2-7c-0.1-2.8-0.7-5.4-1.5-7.9c-0.9-2.5-2.3-4.6-4.3-6.3
		c-2-1.8-4.9-2.6-8.6-2.6c-4.2,0-7.7,0.8-10.3,2.3c-2.6,1.5-4.6,3.6-6,6.1c-1.4,2.6-2.3,5.4-2.7,8.6c-0.4,3.2-0.7,6.6-0.7,10.1v53
		h-32.8V58.2z"/>
	<path class="st1" d="M560.6,24.7c0-5.3,1.9-9.7,5.6-13.5c3.7-3.7,8.2-5.6,13.5-5.6c5.3,0,9.7,1.9,13.5,5.6
		c3.7,3.7,5.6,8.2,5.6,13.5s-1.9,9.7-5.6,13.5c-3.7,3.7-8.2,5.6-13.5,5.6c-5.3,0-9.7-1.9-13.5-5.6C562.4,34.4,560.6,30,560.6,24.7z
		 M563.2,58.2H596v106.3h-32.8V58.2z"/>
	<path class="st1" d="M615.7,111.4c0-8.5,1.5-16.1,4.6-23c3.1-6.9,7.3-12.7,12.6-17.6c5.3-4.9,11.6-8.6,18.8-11.3
		c7.2-2.6,14.9-3.9,23.1-3.9c8.2,0,15.9,1.3,23.1,3.9c7.2,2.6,13.5,6.4,18.8,11.3c5.3,4.9,9.5,10.8,12.6,17.6
		c3.1,6.9,4.6,14.5,4.6,23c0,8.5-1.5,16.1-4.6,23c-3.1,6.9-7.3,12.7-12.6,17.6c-5.3,4.9-11.6,8.6-18.8,11.3
		c-7.2,2.6-14.9,3.9-23.1,3.9c-8.2,0-15.9-1.3-23.1-3.9c-7.2-2.6-13.5-6.4-18.8-11.3c-5.3-4.9-9.5-10.8-12.6-17.6
		C617.3,127.5,615.7,119.8,615.7,111.4z M648.5,111.4c0,8,2.3,14.5,6.9,19.5c4.6,5,11.1,7.4,19.4,7.4c8.3,0,14.8-2.5,19.4-7.4
		c4.6-5,6.9-11.5,6.9-19.5c0-8-2.3-14.5-6.9-19.5c-4.6-5-11.1-7.4-19.4-7.4c-8.3,0-14.8,2.5-19.4,7.4
		C650.8,96.9,648.5,103.3,648.5,111.4z"/>
</g>
</svg>
