<?xml version="1.0" encoding="utf-8"?>
<!-- Generator: Adobe Illustrator 24.3.0, SVG Export Plug-In . SVG Version: 6.00 Build 0)  -->
<svg version="1.1" id="Vrstva_1" xmlns="http://www.w3.org/2000/svg" xmlns:xlink="http://www.w3.org/1999/xlink" x="0px" y="0px"
	 viewBox="0 0 448 448" style="enable-background:new 0 0 448 448;" xml:space="preserve">
<style type="text/css">
	.st0{fill:#073B4C;}
</style>
<path class="st0" d="M408,359.9V40l-12.2,1c-49,4-97,15.8-142.3,34.7L232,84.6v318.7l15.6-6.5c46.9-19.5,96.6-31.6,147.2-35.8
	L408,359.9z"/>
<path class="st0" d="M448,87.3h-24v280c0,4.2-3.2,7.7-7.3,8l-20.5,1.7c-5.9,0.5-11.8,1.1-17.7,1.8c-1.9,0.2-3.8,0.5-5.7,0.8
	c-4,0.5-7.9,1.1-11.9,1.7c-2.3,0.4-4.6,0.8-6.9,1.2c-3.5,0.6-7.1,1.2-10.6,1.9c-2.4,0.5-4.8,1-7.2,1.5c-3.4,0.7-6.7,1.4-10,2.2
	c-2.5,0.6-5,1.2-7.5,1.9c-3.2,0.8-6.5,1.7-9.7,2.6c-2.5,0.7-5,1.4-7.5,2.1c-3.2,0.9-6.4,1.9-9.5,2.9c-2.5,0.8-4.9,1.6-7.4,2.4
	c-3.2,1.1-6.3,2.2-9.4,3.3c-2.4,0.9-4.8,1.7-7.3,2.7c-1.1,0.4-2.2,0.9-3.3,1.3H448V87.3z"/>
<path class="st0" d="M52.2,41L40,40v320l14.2,1.2c50.6,4.2,100.2,16.4,147,36l14.8,6.1V84.6l-21.5-8.9
	C149.2,56.8,101.2,45.1,52.2,41z"/>
<path class="st0" d="M0,87.3v320h183.5c-1-0.4-2-0.8-3-1.2c-2.3-0.9-4.6-1.7-6.9-2.5c-3.2-1.2-6.5-2.3-9.8-3.4
	c-2.4-0.8-4.7-1.6-7.1-2.3c-3.2-1.1-6.5-2.1-9.8-3c-2.4-0.7-4.8-1.4-7.2-2.1c-3.3-0.9-6.6-1.8-9.9-2.6c-2.4-0.6-4.8-1.2-7.3-1.8
	c-3.4-0.8-6.7-1.5-10.1-2.3c-2.4-0.5-4.8-1-7.2-1.5c-3.5-0.7-7-1.3-10.5-1.9c-2.3-0.4-4.6-0.8-6.9-1.2c-3.9-0.6-7.7-1.1-11.6-1.7
	c-2-0.3-3.9-0.6-5.9-0.8c-5.9-0.7-11.7-1.3-17.6-1.8l-21.5-1.8c-4.2-0.4-7.3-3.8-7.3-8v-280H0z"/>
</svg>
