<svg xmlns="http://www.w3.org/2000/svg" viewBox="0 0 119.56 126.43"><defs><style>.cls-1{fill:#c6c6c6;}</style></defs><g id="DESIGNED_BY_FREEPIK" data-name="DESIGNED BY FREEPIK"><g id="Group_135" data-name="Group 135"><path id="Path_54" data-name="Path 54" class="cls-1" d="M58.26,123.8a54,54,0,0,1-7.52-.53C25.18,119.58,4,96.8,2.64,71.41c-.44-7.8.79-16.33,3.73-26.09C10.08,33,15.08,23.71,21.66,16.82A48.6,48.6,0,0,1,59.32,2h0a62.68,62.68,0,0,1,49.59,30.41c10.63,17.52,12.1,37.93,4,56C103.51,109.57,80.9,123.8,58.26,123.8ZM56.54,4.38A46.27,46.27,0,0,0,23.41,18.5C17.1,25.11,12.29,34.11,8.69,46c-2.86,9.48-4,17.74-3.63,25.25,1.35,24.27,21.56,46.05,46,49.58,24,3.45,49.58-10.9,59.62-33.4,7.75-17.34,6.33-36.94-3.88-53.76A60.28,60.28,0,0,0,59.17,4.45h0C58.3,4.41,57.41,4.38,56.54,4.38Z"/></g></g></svg>